<?xml version="1.0" encoding="UTF-8"?>
<!DOCTYPE svg PUBLIC "-//W3C//DTD SVG 1.1//EN" "http://www.w3.org/Graphics/SVG/1.1/DTD/svg11.dtd">
<!-- Creator: CorelDRAW -->
<svg xmlns="http://www.w3.org/2000/svg" xml:space="preserve" width="84.6666mm" height="84.6666mm" version="1.1" style="shape-rendering:geometricPrecision; text-rendering:geometricPrecision; image-rendering:optimizeQuality; fill-rule:evenodd; clip-rule:evenodd"
viewBox="0 0 8466.66 8466.66"
 xmlns:xlink="http://www.w3.org/1999/xlink"
 xmlns:xodm="http://www.corel.com/coreldraw/odm/2003">
 <defs>
  <style type="text/css">
   <![CDATA[
    .str0 {stroke:#4A4B57;stroke-width:84.67;stroke-miterlimit:22.9256}
    .fil2 {fill:none}
    .fil0 {fill:#0B0D1C}
    .fil3 {fill:#FF2976}
    .fil1 {fill:white}
   ]]>
  </style>
   <clipPath id="id0">
    <path d="M1918.1 397.93l4630.46 0c836.1,0 1520.17,684.07 1520.17,1520.17l0 4630.46c0,836.1 -684.07,1520.17 -1520.17,1520.17l-4630.46 0c-836.1,0 -1520.17,-684.07 -1520.17,-1520.17l0 -4630.46c0,-836.1 684.07,-1520.17 1520.17,-1520.17z"/>
   </clipPath>
     <mask id="id1">
  <radialGradient id="id2" gradientUnits="userSpaceOnUse" cx="-3750.42" cy="-3593" r="0" fx="-3750.42" fy="-3593">
   <stop offset="0" style="stop-opacity:0.270588; stop-color:white"/>
   <stop offset="1" style="stop-opacity:0; stop-color:white"/>
  </radialGradient>
      <rect style="fill:url(#id2)" x="-3754.65" y="-3597.23" width="9046.53" height="9046.54"/>
     </mask>
 </defs>
 <g id="Layer_x0020_1">
  <metadata id="CorelCorpID_0Corel-Layer"/>
  <path class="fil0" d="M1918.1 397.93l4630.46 0c836.1,0 1520.17,684.07 1520.17,1520.17l0 4630.46c0,836.1 -684.07,1520.17 -1520.17,1520.17l-4630.46 0c-836.1,0 -1520.17,-684.07 -1520.17,-1520.17l0 -4630.46c0,-836.1 684.07,-1520.17 1520.17,-1520.17z"/>
  <g style="clip-path:url(#id0)">
   <g id="_2076676816192">
    <path id="_1" class="fil1" style="mask:url(#id1)" d="M768.62 -3593c2495.79,0 4519.03,2023.24 4519.03,4519.04 0,2495.79 -2023.24,4519.04 -4519.03,4519.04 -2495.8,0 -4519.04,-2023.25 -4519.04,-4519.04 0,-2495.8 2023.24,-4519.04 4519.04,-4519.04z"/>
   </g>
  </g>
  <path class="fil2 str0" d="M1918.1 397.93l4630.46 0c836.1,0 1520.17,684.07 1520.17,1520.17l0 4630.46c0,836.1 -684.07,1520.17 -1520.17,1520.17l-4630.46 0c-836.1,0 -1520.17,-684.07 -1520.17,-1520.17l0 -4630.46c0,-836.1 684.07,-1520.17 1520.17,-1520.17z"/>
  <path class="fil3" d="M3303.59 2137.44c-433.08,46.25 -751.12,414.75 -730.42,898.58 20.97,489.98 199.26,867.28 336.48,1287.06 68.61,209.89 143.62,429.99 133.39,677.89 -14.05,340.56 -161.34,621.94 -349.78,867.04 -53.73,69.88 -134.13,158.07 -84.02,296.45 35.34,97.56 112.18,161.51 240.67,163.25l1219.55 1.79c159.56,0.03 669.02,20.27 776.55,-35.73 80.55,-41.94 157.18,-144.25 126.42,-273.72 -24.56,-103.34 -122.92,-165.8 -190.71,-216.1 -224.43,-166.51 -482.47,-321.59 -715.21,-504.02 -83.07,-65.13 -314.15,-271.83 -369.28,-341.96 -74.35,-94.59 -153.99,-193.93 -173.18,-334.52 -18.26,-133.72 23.73,-234.41 134.4,-262.12 181.96,-45.57 388.3,189.45 506.22,298.58 66.9,61.92 133.3,133.97 218.65,187.73 204.78,128.96 428.88,124.33 595.98,-29.4 174.78,-160.8 220.42,-327.16 235.9,-579.57 16.76,-273.17 -68.26,-460.11 -367.12,-447.34 -405.17,17.31 -739.23,301.72 -1329.36,-43.4 -449.81,-263.06 -575.88,-881.22 -92.94,-924.2 521.67,-46.42 1085.48,701.28 1792.63,642.3 512.97,-42.78 725.2,-527.09 666.53,-951.47 -66.67,-482.25 -450.11,-391.11 -777.2,-311.42 -122.36,29.81 -214.12,47.59 -346.85,60.38 -549.46,52.94 -1131.03,-160.92 -1457.3,-126.08z"/>
 </g>
</svg>
